<svg width="28" height="28" viewBox="0 0 28 28" fill="none" xmlns="http://www.w3.org/2000/svg">
  <g clip-path="url(#clip0_5287_20321)">
    <path
      d="M25.0818 2.92545C22.4399 0.293861 18.6415 0 14 0C9.35262 0 5.54871 0.297327 2.90812 2.93584C0.267525 5.57436 0 9.37134 0 14.0135C0 18.6557 0.268218 22.4554 2.91089 25.094C5.55356 27.7325 9.35297 28 14 28C18.647 28 22.4502 27.7328 25.0891 25.094C27.728 22.4551 28 18.656 28 14.0135C28 9.3651 27.7283 5.56327 25.0818 2.92545Z"
      fill="#FF6900"
    />
    <path
      d="M12.9694 19.1885C12.9694 19.2114 12.9649 19.2341 12.956 19.2553C12.9472 19.2764 12.9342 19.2956 12.9179 19.3117C12.9016 19.3279 12.8823 19.3406 12.861 19.3492C12.8397 19.3578 12.817 19.362 12.7941 19.3618H10.4064C10.3834 19.3621 10.3605 19.3578 10.3391 19.3493C10.3177 19.3408 10.2982 19.3281 10.2817 19.312C10.2652 19.2959 10.2521 19.2767 10.2431 19.2555C10.234 19.2343 10.2292 19.2115 10.229 19.1885V12.9443C10.2292 12.9212 10.234 12.8985 10.2431 12.8773C10.2521 12.8561 10.2652 12.8369 10.2817 12.8208C10.2982 12.8047 10.3177 12.792 10.3391 12.7835C10.3605 12.7749 10.3834 12.7707 10.4064 12.771H12.7941C12.817 12.7707 12.8397 12.775 12.861 12.7836C12.8823 12.7922 12.9016 12.8049 12.9179 12.821C12.9342 12.8371 12.9472 12.8563 12.956 12.8775C12.9649 12.8986 12.9694 12.9214 12.9694 12.9443V19.1885Z"
      fill="white"
    />
    <path
      d="M17.6448 19.1885C17.6443 19.2349 17.6255 19.2792 17.5924 19.3116C17.5594 19.3441 17.5148 19.3622 17.4684 19.3618H15.1955C15.1725 19.3622 15.1496 19.3581 15.1281 19.3496C15.1067 19.3411 15.0872 19.3284 15.0707 19.3123C15.0543 19.2961 15.0412 19.2769 15.0323 19.2556C15.0234 19.2344 15.0188 19.2116 15.0188 19.1885V13.8013C15.0163 12.8605 14.9626 11.8954 14.4768 11.4081C14.0609 10.9892 13.2809 10.8932 12.471 10.8731H8.35144C8.32848 10.8728 8.30569 10.877 8.28439 10.8856C8.26308 10.8941 8.2437 10.9068 8.22735 10.923C8.211 10.9391 8.19802 10.9583 8.18916 10.9795C8.1803 11.0007 8.17574 11.0234 8.17575 11.0463V19.1899C8.17511 19.2364 8.15608 19.2807 8.12282 19.3132C8.08957 19.3457 8.0448 19.3636 7.99832 19.3632H5.72332C5.70039 19.3635 5.67764 19.3592 5.65637 19.3506C5.63511 19.342 5.61577 19.3293 5.59946 19.3132C5.58314 19.297 5.5702 19.2779 5.56136 19.2567C5.55252 19.2355 5.54797 19.2128 5.54797 19.1899V8.81293C5.54797 8.79 5.55252 8.7673 5.56136 8.74614C5.5702 8.72498 5.58314 8.70579 5.59946 8.68967C5.61577 8.67355 5.63511 8.66083 5.65637 8.65225C5.67764 8.64366 5.70039 8.63939 5.72332 8.63966H12.2853C14.0003 8.63966 15.7929 8.71798 16.6773 9.60337C17.5616 10.4888 17.6448 12.2821 17.6448 13.9992V19.1885Z"
      fill="white"
    />
    <path
      d="M22.3269 19.1885C22.3264 19.2349 22.3075 19.2791 22.2745 19.3115C22.2414 19.344 22.1969 19.3621 22.1505 19.3618H19.8762C19.8532 19.3622 19.8304 19.358 19.8091 19.3494C19.7877 19.3409 19.7683 19.3282 19.7519 19.312C19.7355 19.2959 19.7225 19.2767 19.7136 19.2555C19.7048 19.2343 19.7002 19.2115 19.7002 19.1885V8.81294C19.7002 8.78995 19.7048 8.76719 19.7136 8.74599C19.7225 8.72478 19.7355 8.70556 19.7519 8.68943C19.7683 8.6733 19.7877 8.6606 19.8091 8.65206C19.8304 8.64351 19.8532 8.6393 19.8762 8.63967H22.1505C22.1969 8.63939 22.2414 8.65746 22.2745 8.68992C22.3075 8.72239 22.3264 8.76661 22.3269 8.81294V19.1885Z"
      fill="white"
    />
  </g>
  <defs>
    <clipPath id="clip0_5287_20321">
      <rect width="28" height="28" fill="white" />
    </clipPath>
  </defs>
</svg>
