<svg width="28" height="28" viewBox="0 0 28 28" fill="none" xmlns="http://www.w3.org/2000/svg">
  <rect width="28" height="28" rx="8" fill="#FF6900" />
  <path
    d="M5.83333 8.3357C5.83333 8.24241 5.90873 8.16667 6.00236 8.16667H12.3311C13.9851 8.16667 15.7142 8.24323 16.5668 9.11037C17.4234 9.98137 17.5 11.7342 17.5 13.4159V18.4983C17.5 18.5905 17.4234 18.6667 17.3302 18.6667H15.1381C15.044 18.6667 14.9673 18.5905 14.9673 18.4983V18.4755V13.2216C14.9651 12.3003 14.9133 11.3534 14.445 10.8775C14.0423 10.4673 13.2913 10.3733 12.5102 10.3536H8.53657C8.4428 10.3536 8.367 10.4303 8.367 10.5223V17.9466V18.4983C8.367 18.5905 8.2897 18.6667 8.19593 18.6667H6.00236C5.90873 18.6667 5.83333 18.5905 5.83333 18.4983V8.3357Z"
    fill="white"
  />
  <path
    d="M19.8333 8.3357C19.8333 8.24241 19.9035 8.16667 19.9898 8.16667H22.0098C22.0955 8.16667 22.1667 8.24241 22.1667 8.3357V18.4983C22.1667 18.5905 22.0955 18.6667 22.0098 18.6667H19.9898C19.9035 18.6667 19.8333 18.5905 19.8333 18.4983V8.3357Z"
    fill="white"
  />
  <path
    d="M12.8333 18.4841C12.8333 18.5841 12.7659 18.6667 12.684 18.6667H10.651C10.5675 18.6667 10.5 18.5841 10.5 18.4841V11.8497C10.5 11.749 10.5675 11.6667 10.651 11.6667H12.684C12.7659 11.6667 12.8333 11.749 12.8333 11.8497V18.4841Z"
    fill="white"
  />
</svg>
